<svg width="512" height="512" viewBox="0 0 512 512" fill="none" xmlns="http://www.w3.org/2000/svg">
<path d="M428.978 97.509V212.953H83.022V97.509C83.022 83.538 94.347 72.213 108.318 72.213H403.682C417.652 72.213 428.978 83.538 428.978 97.509Z" fill="#C17D61"/>
<path d="M428.985 97.498V212.928H392.296V97.498C392.296 83.552 380.978 72.234 367.032 72.234H403.667C417.667 72.234 428.985 83.552 428.985 97.498Z" fill="black" fill-opacity="0.0313726"/>
<path d="M15.742 275.34H496.257V378.155H15.742V275.34Z" fill="#E5E3E5"/>
<path d="M92.903 195.893L15.742 275.34H496.257L419.096 195.893C415.559 192.252 411.328 189.357 406.653 187.38C401.978 185.403 396.953 184.385 391.877 184.385H120.123C115.047 184.385 110.022 185.403 105.347 187.38C100.671 189.357 96.4397 192.252 92.903 195.893Z" fill="#F2F0F0"/>
<path d="M227.708 157.42C222.923 171.717 222.665 186.014 226.935 200.311C229.624 209.314 221.576 217.505 212.588 214.766C184.978 206.35 157.367 206.583 129.757 215.466C121.079 218.258 113.141 210.402 115.399 201.57C119.071 187.206 118.889 172.07 114.166 156.023C111.709 147.674 119.662 139.931 128.077 142.152C156.752 149.723 185.426 149.928 214.101 142.769C222.897 140.572 230.586 148.822 227.708 157.42ZM397.673 157.42C392.888 171.717 392.63 186.014 396.9 200.311C399.589 209.314 391.541 217.505 382.553 214.766C354.943 206.35 327.332 206.583 299.722 215.466C291.044 218.258 283.106 210.402 285.364 201.57C289.036 187.206 288.854 172.07 284.131 156.023C281.674 147.674 289.627 139.931 298.042 142.152C326.717 149.723 355.391 149.928 384.066 142.769C392.862 140.572 400.551 148.822 397.673 157.42Z" fill="#E5E3E5"/>
<path d="M479.394 391.062V427.373C479.394 434.229 473.836 439.787 466.98 439.787H424.772C417.916 439.787 412.358 434.229 412.358 427.373V391.062H479.394ZM32.606 391.062H99.643V427.373C99.643 434.229 94.085 439.787 87.229 439.787H45.021C38.165 439.787 32.607 434.229 32.607 427.373L32.606 391.062Z" fill="#AD6850"/>
<path d="M508.102 347.819V393.855C508.102 400.711 502.544 406.269 495.688 406.269H16.313C9.457 406.269 3.899 400.711 3.899 393.855V347.819C3.899 340.963 9.457 335.405 16.313 335.405H495.688C502.543 335.405 508.102 340.963 508.102 347.819Z" fill="#C17D61"/>
<path d="M498.849 333.147V275.336C498.849 274.828 498.591 274.016 498.114 273.525L431.587 205.027V97.514C431.587 82.122 419.065 69.6 403.673 69.6H108.326C92.934 69.6 80.412 82.122 80.412 97.514V205.027L13.885 273.525C13.435 273.988 13.15 274.804 13.15 275.336V333.147C6.386 334.604 1.298 340.625 1.298 347.819V393.855C1.298 402.133 8.033 408.868 16.311 408.868H30.017V427.377C30.017 435.661 36.744 442.4 45.013 442.4H87.221C95.504 442.4 102.243 435.661 102.243 427.377V408.868H409.756V427.377C409.756 435.661 416.495 442.4 424.778 442.4H466.986C475.255 442.4 481.982 435.661 481.982 427.377V408.868H495.688C503.966 408.868 510.701 402.133 510.701 393.855V347.82C510.701 340.626 505.613 334.604 498.849 333.147ZM493.651 332.806H18.349V277.935H493.651V332.806ZM85.61 97.514C85.61 84.989 95.8 74.798 108.326 74.798H403.674C416.199 74.798 426.39 84.988 426.39 97.514V199.675L420.948 194.072C414.451 187.386 405.839 183.156 396.576 182.1C396.334 174.135 397.49 166.159 400.138 158.245C403.666 147.706 394.254 137.55 383.437 140.248C355.325 147.263 326.818 147.06 298.706 139.64C288.417 136.922 278.586 146.391 281.637 156.757C284.119 165.19 285.293 173.55 285.252 181.773H226.603C226.403 173.916 227.56 166.05 230.173 158.245C233.7 147.706 224.289 137.55 213.471 140.248C185.358 147.263 156.85 147.06 128.74 139.64C118.443 136.918 108.625 146.397 111.671 156.757C114.188 165.306 115.362 173.779 115.284 182.111C106.071 183.198 97.5135 187.423 91.049 194.076L85.61 199.676V97.514ZM287.882 202.213C291.676 187.37 291.375 171.432 286.624 155.289C284.765 148.974 290.819 142.932 297.378 144.665C326.348 152.312 355.723 152.523 384.695 145.291C391.524 143.592 397.431 149.953 395.208 156.596C390.271 171.346 390.004 186.304 394.41 201.055C396.52 208.122 390.275 214.403 383.311 212.281C355.316 203.745 326.924 203.987 298.926 212.992C292.165 215.161 286.131 209.064 287.882 202.213ZM117.916 202.213C121.788 187.068 121.365 171.28 116.658 155.289C114.798 148.969 120.858 142.934 127.412 144.665C156.383 152.312 185.762 152.522 214.729 145.291C221.553 143.585 227.467 149.951 225.243 156.596C220.306 171.343 220.037 186.302 224.444 201.055C226.554 208.122 220.309 214.401 213.345 212.281C185.35 203.745 156.958 203.987 128.96 212.992C122.226 215.167 116.162 209.078 117.916 202.213ZM94.777 197.698C100.269 192.055 107.387 188.453 115.063 187.355C114.718 191.931 114.022 196.463 112.881 200.926C110.09 211.843 120.014 221.327 130.552 217.94C157.522 209.265 184.865 209.034 211.83 217.252C222.76 220.59 232.725 210.613 229.424 199.567C228.175 195.383 227.381 191.18 226.941 186.971H285.058C284.726 191.678 284.02 196.338 282.847 200.927C280.048 211.873 290.016 221.316 300.518 217.941C327.488 209.266 354.831 209.035 381.796 217.253C392.726 220.591 402.691 210.614 399.39 199.568C398.179 195.512 397.396 191.438 396.945 187.358C404.619 188.456 411.732 192.056 417.222 197.697L490.103 272.738H21.897L94.777 197.698ZM97.046 427.377C97.046 432.795 92.639 437.202 87.222 437.202H45.014C39.612 437.202 35.216 432.795 35.216 427.377V408.868H97.046V427.377ZM476.784 427.377C476.784 432.795 472.388 437.202 466.986 437.202H424.778C419.362 437.202 414.954 432.795 414.954 427.377V408.868H476.784V427.377ZM505.503 393.855C505.503 399.267 501.101 403.67 495.688 403.67H16.312C10.9 403.67 6.497 399.268 6.497 393.855V347.82C6.497 342.408 10.899 338.004 16.312 338.004H495.688C501.1 338.004 505.503 342.408 505.503 347.82V393.855Z" fill="black"/>
<path d="M508.102 347.829V393.851C508.102 400.717 502.524 406.295 495.711 406.295H459.022C465.888 406.295 471.466 400.717 471.466 393.851V347.829C471.466 340.963 465.888 335.385 459.022 335.385H495.711C502.523 335.385 508.102 340.963 508.102 347.829Z" fill="black" fill-opacity="0.0313726"/>
<path d="M116.374 95.301V108.13C116.374 109.08 116.187 110.021 115.823 110.899C115.459 111.778 114.926 112.575 114.254 113.247C113.582 113.919 112.785 114.452 111.906 114.816C111.028 115.18 110.087 115.367 109.137 115.367C108.187 115.367 107.246 115.18 106.368 114.816C105.489 114.452 104.692 113.919 104.02 113.247C103.348 112.575 102.815 111.778 102.451 110.899C102.087 110.021 101.9 109.08 101.9 108.13V95.301C101.9 94.3506 102.087 93.4096 102.451 92.5315C102.815 91.6535 103.348 90.8557 104.02 90.1837C104.692 89.5117 105.489 88.9786 106.368 88.6149C107.246 88.2512 108.187 88.064 109.137 88.064C110.087 88.064 111.028 88.2512 111.906 88.6149C112.785 88.9786 113.582 89.5117 114.254 90.1837C114.926 90.8557 115.459 91.6535 115.823 92.5315C116.187 93.4096 116.374 94.3506 116.374 95.301ZM57.001 358.089V370.918C57.001 372.837 56.2385 374.678 54.8813 376.035C53.5241 377.393 51.6834 378.155 49.764 378.155C47.8446 378.155 46.0039 377.393 44.6467 376.035C43.2895 374.678 42.527 372.837 42.527 370.918V358.089C42.527 356.17 43.2895 354.329 44.6467 352.972C46.0039 351.614 47.8446 350.852 49.764 350.852C51.6834 350.852 53.5241 351.614 54.8813 352.972C56.2385 354.329 57.001 356.17 57.001 358.089Z" fill="white" fill-opacity="0.25098"/>
</svg>
